<svg width="60" height="60" viewBox="0 0 60 60" fill="none" xmlns="http://www.w3.org/2000/svg">
    <g clip-path="url(#clip0_0_1)">
        <path
            d="M8.17969 0.128864C6.21094 0.410114 4.38281 1.35933 2.87109 2.87105C1.28906 4.45308 0.398436 6.24605 0.105467 8.4023C0.0351546 9.01168 -1.67992e-06 16.5703 0.0234358 30.6445L0.0585921 51.9726L0.328123 52.8515C1.37109 56.2734 3.84375 58.7226 7.20703 59.6719C8.14453 59.9414 8.14453 59.9414 18.9727 59.9765C30.8906 60.0117 30.9492 60.0117 32.7891 59.2969C35.0508 58.4297 37.1016 56.4375 38.0742 54.1992C38.7656 52.6172 38.8242 52.1601 38.8828 47.7304C38.9063 44.9765 38.8828 43.4062 38.8008 43.0078C38.5195 41.6836 37.4297 40.7695 36.1172 40.7695C35.0039 40.7578 34.1953 41.2148 33.5977 42.1875C33.3516 42.5859 33.3399 42.7383 33.2813 46.9336L33.2227 51.2695L32.918 51.9258C32.4844 52.8515 31.8633 53.4844 30.9609 53.9297L30.1758 54.3164H19.4531H8.73047L8.02735 53.9883C6.84375 53.4375 6.11719 52.5703 5.80078 51.3633C5.53125 50.3554 5.53125 9.64449 5.80078 8.63668C6.11719 7.42965 6.84375 6.56246 8.02735 6.01168L8.73047 5.68355H19.4531H30.1758L30.832 5.98824C31.7578 6.42184 32.3906 7.04293 32.836 7.94527L33.2227 8.73043L33.2813 12.5976C33.3516 16.8515 33.3399 16.7929 34.125 17.5429C35.707 19.0664 38.3438 18.2343 38.8008 16.0781C38.8828 15.6328 38.918 14.2734 38.8711 11.789C38.8242 7.88668 38.7422 7.3359 38.0742 5.80074C37.0899 3.51558 34.9922 1.5234 32.6602 0.644489C30.9609 0.0116768 30.75 -4.19579e-05 19.3477 0.0116768C13.5703 0.0233955 8.54297 0.0702706 8.17969 0.128864Z"
            fill="white" />
        <path
            d="M46.2304 17.2969C45.5508 17.5313 44.9531 18.0703 44.6601 18.6914C44.3672 19.3242 44.332 20.4258 44.6015 21.0703C44.7187 21.3516 45.7734 22.5 47.6133 24.3399L50.4375 27.1875H37.9687C25.664 27.1875 25.4765 27.1992 24.9609 27.4336C23.8476 27.9375 23.2734 28.8047 23.2734 30C23.2734 31.1953 23.8476 32.0625 24.9609 32.5664C25.4765 32.8008 25.664 32.8125 37.9687 32.8125H50.4375L47.5547 35.7071C44.7656 38.5195 44.6601 38.6367 44.4726 39.3047C44.2968 39.8906 44.2851 40.1016 44.4023 40.6172C44.7773 42.2813 46.3476 43.1953 48 42.7149C48.6797 42.5274 48.7383 42.4688 54.1523 37.0547C59.2734 31.9219 59.6367 31.5469 59.8242 30.9492C60.0703 30.1875 60.0234 29.4141 59.6718 28.6992C59.4961 28.336 57.8554 26.6133 54.0586 22.8282C48.914 17.7071 48.6679 17.4727 48.0586 17.2969C47.2968 17.0743 46.8515 17.0743 46.2304 17.2969Z"
            fill="white" />
    </g>
    <defs>
        <clipPath id="clip0_0_1">
            <rect width="60" height="60" fill="white" />
        </clipPath>
    </defs>
</svg>
    