<?xml version="1.0" encoding="UTF-8" standalone="no"?>
<!-- Created with Inkscape (http://www.inkscape.org/) -->

<svg
   xmlns:dc="http://purl.org/dc/elements/1.1/"
   xmlns:cc="http://creativecommons.org/ns#"
   xmlns:rdf="http://www.w3.org/1999/02/22-rdf-syntax-ns#"
   xmlns:svg="http://www.w3.org/2000/svg"
   xmlns="http://www.w3.org/2000/svg"
   xmlns:sodipodi="http://sodipodi.sourceforge.net/DTD/sodipodi-0.dtd"
   xmlns:inkscape="http://www.inkscape.org/namespaces/inkscape"
   width="297mm"
   height="100mm"
   viewBox="0 0 297 100"
   version="1.1"
   id="svg4652"
   inkscape:version="0.92.1 r15371"
   sodipodi:docname="logo-light-equatorial.svg">
  <defs
     id="defs4646" />
  <sodipodi:namedview
     id="base"
     pagecolor="#ffffff"
     bordercolor="#666666"
     borderopacity="1.0"
     inkscape:pageopacity="0.0"
     inkscape:pageshadow="2"
     inkscape:zoom="0.35"
     inkscape:cx="-127.14286"
     inkscape:cy="560"
     inkscape:document-units="mm"
     inkscape:current-layer="layer1"
     showgrid="false"
     inkscape:window-width="1920"
     inkscape:window-height="1025"
     inkscape:window-x="-8"
     inkscape:window-y="-8"
     inkscape:window-maximized="1"
     height="140mm" />
  <metadata
     id="metadata4649">
    <rdf:RDF>
      <cc:Work
         rdf:about="">
        <dc:format>image/svg+xml</dc:format>
        <dc:type
           rdf:resource="http://purl.org/dc/dcmitype/StillImage" />
        <dc:title></dc:title>
      </cc:Work>
    </rdf:RDF>
  </metadata>
  <g
     inkscape:label="Camada 1"
     inkscape:groupmode="layer"
     id="layer1"
     transform="translate(0,-197)">
    <g
       id="g5249"
       transform="matrix(2.3929161,0,0,2.3929161,702.03277,-304.51019)">
      <g
         transform="matrix(0.35277777,0,0,-0.35277777,-271.188,235.47883)"
         id="g52">
        <path
           inkscape:connector-curvature="0"
           id="path54"
           style="fill:#ffffff;fill-opacity:1;fill-rule:nonzero;stroke:none"
           d="m 0,0 c 0,-3.871 -1.536,-6.681 -4.602,-8.477 -2.436,-1.428 -5.932,-2.115 -10.494,-2.115 -4.55,0 -8.048,0.738 -10.534,2.274 -2.911,1.851 -4.402,4.77 -4.402,8.797 v 9.744 c 4.079,0.687 12.823,2.063 12.823,2.063 V 0.105 c 0,-0.846 0.153,-1.54 0.524,-2.062 0.372,-0.428 0.956,-0.64 1.697,-0.64 0.743,0 1.269,0.212 1.642,0.64 0.375,0.522 0.534,1.216 0.534,2.062 V 10.59 H 0 Z M 65.364,-9.854 H 52.601 v 1.745 c -0.686,-0.685 -1.747,-1.269 -3.178,-1.745 -1.325,-0.478 -2.914,-0.738 -4.766,-0.738 -2.703,0 -4.982,0.687 -6.732,2.115 -1.741,1.429 -2.592,3.122 -2.592,5.144 v 20.652 c 4.185,0.267 8.471,0.527 12.818,0.742 v -18.17 c 0,-1.59 0.745,-2.385 2.225,-2.385 0.738,0 1.267,0.16 1.642,0.537 0.368,0.47 0.583,1.056 0.583,1.8 v 18.478 c 4.187,0.215 8.472,0.376 12.763,0.532 z m 18.115,7.36 c 0.586,0 1.113,0.16 1.429,0.537 0.482,0.47 0.691,1.056 0.691,1.848 V 13.347 C 84.711,13.129 83.961,12.883 83.376,12.616 82.808,12.364 82.389,12.097 82.102,11.809 81.467,11.176 81.146,10.376 81.146,9.424 v -9.533 c 0,-0.792 0.213,-1.378 0.589,-1.848 0.398,-0.356 0.944,-0.525 1.641,-0.537 z m -0.103,-7.774 c -1.171,-0.228 -2.65,-0.324 -4.504,-0.324 -3.812,0 -6.516,0.687 -8.159,2.012 -1.588,1.376 -2.38,3.438 -2.38,6.195 V 8.099 c 0,4.187 2.86,7.686 8.579,10.437 0.584,0.267 1.167,0.529 1.694,0.743 l 4.77,0.109 c 4.95,0.12 9.954,0.22 15.037,0.258 v -29.5 H 87.085 v 2.009 c -0.639,-1.163 -1.592,-1.902 -2.862,-2.226 -0.267,-0.069 -0.547,-0.138 -0.847,-0.197 M 33.057,0 c 0,-3.333 -1.118,-5.88 -3.231,-7.63 l 3.44,-6.412 H 22.669 l -1.855,3.501 c -0.844,-0.051 -1.684,-0.051 -2.645,-0.051 -4.605,0 -8.152,0.738 -10.697,2.274 -3.019,1.851 -4.5,4.77 -4.5,8.797 v 14.083 c 4.181,0.478 8.474,0.847 12.816,1.272 V 0.105 c 0,-0.846 0.155,-1.54 0.529,-2.062 0.369,-0.428 0.953,-0.64 1.7,-0.64 0.736,0 1.268,0.212 1.637,0.64 0.374,0.522 0.585,1.216 0.585,2.062 v 16.103 c 4.188,0.313 8.42,0.633 12.818,0.951 z M 126.7,-9.854 h -8.103 c -5.565,0 -8.951,0.736 -10.224,2.224 -1.269,1.537 -1.856,4.983 -1.856,10.384 v 16.943 l 6.676,0.059 6.147,-0.059 V 2.853 c 0,-1.528 0.526,-2.587 1.537,-3.225 0.737,-0.422 1.909,-0.637 3.438,-0.637 h 2.385 z m 48.045,28.123 V -9.854 h -12.823 v 28.657 c 4.344,-0.157 8.583,-0.32 12.823,-0.534 M 159.435,0 c 0,-3.922 -1.488,-6.779 -4.446,-8.477 -2.385,-1.428 -5.829,-2.115 -10.386,-2.115 -4.609,0 -8.207,0.738 -10.7,2.274 -3.013,1.851 -4.553,4.77 -4.553,8.797 v 19.167 c 4.344,-0.047 8.635,-0.152 12.822,-0.209 V 0.105 c 0,-0.846 0.209,-1.54 0.576,-2.062 0.375,-0.428 0.897,-0.64 1.647,-0.64 0.736,0 1.325,0.212 1.694,0.64 0.366,0.522 0.53,1.216 0.53,2.062 v 19.224 c 4.337,-0.107 8.581,-0.264 12.816,-0.417 z m 48.044,-9.854 h -12.817 v 26.909 c 4.336,-0.27 8.633,-0.637 12.817,-0.956 z m 17.609,7.36 h 0.08 c 0.634,0 1.112,0.16 1.486,0.537 0.418,0.47 0.635,1.056 0.635,1.848 v 13.456 c -0.875,-0.218 -1.604,-0.464 -2.201,-0.737 -0.559,-0.249 -0.991,-0.519 -1.296,-0.801 -0.636,-0.633 -0.899,-1.433 -0.899,-2.385 v -9.533 c 0,-0.792 0.158,-1.378 0.526,-1.848 0.406,-0.367 0.97,-0.525 1.669,-0.537 m 0,-7.774 c -1.15,-0.228 -2.674,-0.324 -4.531,-0.324 -3.813,0 -6.512,0.687 -8.104,2.012 -1.587,1.376 -2.384,3.438 -2.384,6.195 V 8.099 c 0,2.811 1.223,5.248 3.761,7.418 3.831,-0.352 7.58,-0.726 11.258,-1.118 5.171,-0.553 10.183,-1.148 15.017,-1.8 V -9.854 h -11.338 v 2.009 c -0.633,-1.163 -1.585,-1.902 -2.848,-2.226 -0.264,-0.069 -0.532,-0.138 -0.831,-0.197 m 30.964,0.414 h -12.817 v 22.037 c 4.448,-0.589 8.733,-1.221 12.817,-1.909 z" />
      </g>
      <g
         transform="matrix(0.35277777,0,0,-0.35277777,-252.63238,227.33703)"
         id="g56">
        <path
           inkscape:connector-curvature="0"
           id="path58"
           style="fill:#ffffff;fill-opacity:1;fill-rule:nonzero;stroke:none"
           d="M 0,0 V 19.344 H 12.766 V 0.655 c 1.141,0.05 2.291,0.107 3.444,0.153 v 8.31 c 0,3.872 1.538,6.679 4.717,8.484 2.347,1.298 5.647,2.028 9.843,2.105 0.251,0.006 0.5,0.014 0.749,0.014 4.55,0 7.944,-0.795 10.223,-2.334 2.696,-1.749 4.08,-4.721 4.08,-8.737 V 1.605 c 2.68,0.046 5.38,0.072 8.102,0.085 v 9.922 h -5.717 v 7.732 h 5.717 V 29.832 H 66.741 V 19.344 H 73.63 V 11.612 H 66.741 V 1.69 c 3.36,-0.019 6.696,-0.051 10.01,-0.109 V 8.65 c 0,3.913 1.536,6.828 4.551,8.631 2.562,1.615 6.038,2.412 10.494,2.432 l 0.215,0.008 c 4.176,0 7.678,-0.955 10.482,-2.815 2.914,-1.746 4.343,-4.343 4.343,-7.788 V 0.71 c 0.831,-0.035 1.662,-0.073 2.493,-0.11 v 18.744 h 12.816 v -1.742 c 0.563,0.44 1.292,0.846 2.192,1.184 0.297,0.103 0.609,0.205 0.935,0.292 1.426,0.432 3.012,0.643 4.816,0.643 2.709,0 4.874,-0.743 6.619,-2.229 1.801,-1.43 2.655,-3.177 2.655,-5.25 V -1.276 c 0.899,-0.066 1.804,-0.139 2.696,-0.216 v 20.836 h 6.413 6.409 V -2.663 c 4.216,-0.42 8.336,-0.867 12.337,-1.342 4.956,2.46 7.475,4.235 7.475,5.292 v 7.731 c 0,0.85 -0.168,1.485 -0.537,1.905 -0.372,0.418 -0.948,0.689 -1.689,0.689 -0.586,0 -1.112,-0.271 -1.539,-0.689 -0.422,-0.42 -0.633,-1.055 -0.633,-1.905 V -1.311 H 157.896 V 9.118 c 0,3.872 1.591,6.679 4.713,8.484 2.545,1.376 6.041,2.119 10.598,2.119 4.551,0 7.946,-0.795 10.216,-2.334 2.704,-1.749 4.082,-4.721 4.082,-8.737 V -6.771 c 0.209,-0.03 0.428,-0.075 0.633,-0.105 0.841,-0.13 1.672,-0.269 2.497,-0.404 v 38.863 h 12.812 V -9.628 c 13.248,-2.678 23.986,-5.709 31.57,-9.055 -17.11,4.818 -40.469,8.846 -68.119,11.807 -5.945,0.632 -12.101,1.21 -18.427,1.738 -7.79,0.64 -15.844,1.203 -24.134,1.683 -10.5,0.595 -21.377,1.054 -32.541,1.353 C 81.562,-1.824 71.089,-1.68 60.434,-1.68 50.365,-1.68 40.46,-1.808 30.77,-2.053 7.493,-2.645 -14.528,-3.914 -34.586,-5.746 c -3.908,-0.356 -7.741,-0.733 -11.493,-1.13 -7.508,-0.801 -14.702,-1.688 -21.537,-2.648 -18.334,-2.563 -34.111,-5.65 -46.583,-9.159 7.589,3.346 18.327,6.377 31.574,9.055 V 8.65 c 0,3.913 1.429,6.828 4.337,8.631 2.494,1.645 6.039,2.44 10.598,2.44 l 0.074,-0.008 c 4.474,-0.006 7.938,-0.747 10.412,-2.111 3.073,-1.748 4.607,-4.561 4.607,-8.484 V -4.766 c 0.986,0.124 1.973,0.249 2.97,0.37 V 8.65 c 0,3.913 1.481,6.828 4.5,8.631 2.563,1.625 6.061,2.417 10.541,2.432 l 0.158,0.008 c 4.184,0 7.679,-0.955 10.541,-2.815 2.864,-1.746 4.345,-4.343 4.345,-7.788 V -1.351 c 0.756,0.055 1.518,0.123 2.28,0.178 V 19.344 H -4.451 V -0.271 C -2.976,-0.18 -1.491,-0.087 0,0 m 124.337,11.404 c -0.728,0 -1.293,-0.167 -1.662,-0.533 -0.373,-0.368 -0.53,-0.952 -0.53,-1.753 v -9.194 l 2.192,-0.139 2.204,-0.135 v 9.368 c 0,1.587 -0.691,2.386 -2.171,2.386 z M 91.796,1.255 94.019,1.193 v 7.825 c 0,0.85 -0.161,1.485 -0.529,1.905 -0.367,0.418 -0.956,0.689 -1.694,0.689 -0.589,0 -1.109,-0.271 -1.537,-0.689 -0.427,-0.42 -0.686,-1.055 -0.686,-1.905 v -7.7 z M 30.77,1.308 32.997,1.364 v 7.654 c 0,0.85 -0.21,1.485 -0.579,1.905 -0.374,0.418 -0.899,0.689 -1.648,0.689 -0.635,0 -1.164,-0.271 -1.583,-0.689 -0.426,-0.42 -0.632,-1.055 -0.632,-1.905 V 1.243 Z m -65.356,-4.022 2.221,0.22 V 9.018 c 0,0.85 -0.205,1.485 -0.579,1.905 -0.371,0.418 -0.901,0.689 -1.642,0.689 -0.634,0 -1.163,-0.271 -1.592,-0.689 -0.426,-0.42 -0.633,-1.055 -0.633,-1.905 V -2.939 Z m -33.03,-0.239 h 2.203 V 9.018 c 0,0.85 -0.158,1.485 -0.531,1.905 -0.373,0.418 -0.898,0.689 -1.641,0.689 h -0.031 c -0.617,-0.011 -1.144,-0.273 -1.562,-0.689 -0.425,-0.42 -0.626,-1.055 -0.626,-1.905 V -2.953 Z m 216.087,25.159 h -6.411 v 9.377 h 6.411 6.409 v -9.377 z" />
      </g>
      <g
         transform="matrix(0.35277777,0,0,-0.35277777,-212.93663,246.14831)"
         id="g60">
        <path
           inkscape:connector-curvature="0"
           id="path62"
           style="fill:#ffffff;fill-opacity:1;fill-rule:nonzero;stroke:none"
           d="M 0,0 1.29,4.125 C 1.593,5.12 1.835,6.288 2.082,7.262 h 0.05 C 2.379,6.288 2.66,5.14 2.976,4.132 L 4.298,0 Z m 4.816,-2.304 1.517,-4.758 h 3.28 L 4.17,9.692 H 0.271 L -5.097,-7.062 h 3.154 l 1.441,4.758 z m -19.953,-4.758 h 3.055 V 9.685 h -3.055 z m -7.853,9.248 h -5.921 v -2.411 h 2.968 V -4.4 c -0.4,-0.204 -1.221,-0.347 -2.317,-0.347 -3.48,0 -5.818,2.264 -5.818,6.066 0,3.903 2.51,6.016 6.088,6.016 1.768,0 2.884,-0.323 3.805,-0.722 l 0.673,2.484 c -0.774,0.346 -2.384,0.771 -4.453,0.771 -5.542,0 -9.317,-3.409 -9.317,-8.699 -0.026,-2.532 0.844,-4.75 2.336,-6.162 1.592,-1.519 3.73,-2.241 6.568,-2.241 2.233,0 4.316,0.549 5.388,0.949 z m -29.256,5.169 c 0.297,0.082 0.922,0.151 1.888,0.151 1.99,0 3.284,-0.849 3.284,-2.684 0,-1.67 -1.294,-2.767 -3.357,-2.767 h -1.815 z m -3.028,-14.417 h 3.028 v 6.89 h 1.544 c 1.738,-0.053 2.537,-0.749 3.008,-2.936 0.475,-2.084 0.868,-3.449 1.115,-3.954 h 3.159 c -0.352,0.652 -0.797,2.588 -1.318,4.676 -0.42,1.617 -1.142,2.784 -2.336,3.231 v 0.074 c 1.56,0.572 3.032,2.037 3.032,4.195 0,1.427 -0.519,2.595 -1.444,3.357 -1.118,0.952 -2.755,1.34 -5.167,1.34 -1.77,0 -3.483,-0.144 -4.621,-0.34 z m -8.157,9.917 h -6.31 v 4.334 h 6.682 v 2.503 h -9.737 V -7.062 h 10.114 v 2.517 h -7.059 v 4.918 h 6.31 z m -28.082,-9.917 v 5.991 c 0,2.763 -0.019,4.978 -0.152,7.133 l 0.074,0.03 C -90.766,4.2 -89.647,2.14 -88.58,0.327 l 4.377,-7.389 h 3.153 V 9.692 h -2.836 V 3.848 c 0,-2.555 0.083,-4.722 0.281,-6.956 h -0.053 c -0.77,1.813 -1.742,3.753 -2.86,5.615 l -4.322,7.185 h -3.479 V -7.062 Z m -10.961,9.917 h -6.312 v 4.334 h 6.682 v 2.503 h -9.738 V -7.062 h 10.113 v 2.517 h -7.057 v 4.918 h 6.312 z" />
      </g>
      <g
         transform="matrix(0.35277777,0,0,-0.35277777,-278.01273,216.57939)"
         id="g64">
        <path
           inkscape:connector-curvature="0"
           id="path66"
           style="fill:#ffffff;fill-opacity:1;fill-rule:nonzero;stroke:none"
           d="m 0,0 c -0.806,-0.3 -2.379,-0.712 -4.045,-0.712 -2.135,0 -3.765,0.543 -4.963,1.686 -1.123,1.067 -1.761,2.734 -1.761,4.644 0.019,4.008 2.847,6.555 7.024,6.555 1.554,0 2.771,-0.319 3.352,-0.6 L -0.898,9.72 c -0.694,0.318 -1.537,0.543 -2.866,0.543 -2.697,0 -4.589,-1.592 -4.589,-4.533 0,-2.865 1.761,-4.569 4.382,-4.569 0.843,0 1.443,0.112 1.742,0.243 V 4.569 H -4.457 V 6.386 H 0 Z" />
      </g>
      <g
         transform="matrix(0.35277777,0,0,-0.35277777,-274.59728,214.35971)"
         id="g68">
        <path
           inkscape:connector-curvature="0"
           id="path70"
           style="fill:#ffffff;fill-opacity:1;fill-rule:nonzero;stroke:none"
           d="m 0,0 h 1.367 c 1.555,0 2.51,0.824 2.51,2.079 0,1.367 -0.955,2.023 -2.453,2.023 C 0.693,4.102 0.225,4.046 0,3.989 Z m -2.284,5.562 c 0.88,0.168 2.153,0.282 3.483,0.282 1.817,0 3.033,-0.301 3.895,-1.012 0.693,-0.581 1.087,-1.461 1.087,-2.547 0,-1.63 -1.106,-2.734 -2.304,-3.146 v -0.057 c 0.917,-0.337 1.461,-1.217 1.76,-2.435 0.412,-1.573 0.749,-3.033 0.993,-3.52 H 4.271 C 4.083,-6.498 3.765,-5.469 3.428,-3.896 3.053,-2.247 2.472,-1.723 1.161,-1.685 H 0 v -5.188 h -2.284 z" />
      </g>
      <g
         transform="matrix(0.35277777,0,0,-0.35277777,-269.061,212.33159)"
         id="g72">
        <path
           inkscape:connector-curvature="0"
           id="path74"
           style="fill:#ffffff;fill-opacity:1;fill-rule:nonzero;stroke:none"
           d="m 0,0 v -7.359 c 0,-2.472 1.03,-3.615 2.584,-3.615 1.667,0 2.66,1.143 2.66,3.615 V 0 h 2.303 v -7.21 c 0,-3.894 -2.004,-5.618 -5.037,-5.618 -2.922,0 -4.814,1.63 -4.814,5.599 V 0 Z" />
      </g>
      <g
         transform="matrix(0.35277777,0,0,-0.35277777,-262.88393,214.4586)"
         id="g76">
        <path
           inkscape:connector-curvature="0"
           id="path78"
           style="fill:#ffffff;fill-opacity:1;fill-rule:nonzero;stroke:none"
           d="m 0,0 c 0.3,-0.094 0.655,-0.112 1.124,-0.112 1.723,0 2.772,0.861 2.772,2.322 0,1.403 -0.974,2.135 -2.566,2.135 C 0.693,4.345 0.244,4.288 0,4.232 Z m -2.284,5.861 c 0.842,0.151 1.985,0.263 3.52,0.263 1.686,0 2.904,-0.356 3.708,-1.03 C 5.693,4.476 6.181,3.482 6.181,2.303 6.181,1.104 5.806,0.131 5.113,-0.543 4.177,-1.461 2.753,-1.911 1.124,-1.911 0.693,-1.911 0.318,-1.892 0,-1.817 v -4.776 h -2.284 z" />
      </g>
      <g
         transform="matrix(0.35277777,0,0,-0.35277777,-257.59194,214.57124)"
         id="g80">
        <path
           inkscape:connector-curvature="0"
           id="path82"
           style="fill:#ffffff;fill-opacity:1;fill-rule:nonzero;stroke:none"
           d="m 0,0 c 0,-2.584 1.292,-4.625 3.502,-4.625 2.228,0 3.483,2.079 3.483,4.719 0,2.379 -1.18,4.626 -3.483,4.626 C 1.217,4.72 0,2.604 0,0 m 9.42,0.169 c 0,-4.232 -2.566,-6.648 -6.03,-6.648 -3.577,0 -5.826,2.734 -5.826,6.423 0,3.896 2.455,6.63 6.012,6.63 3.671,0 5.844,-2.791 5.844,-6.405" />
      </g>
    </g>
  </g>
</svg>
